<?xml version="1.0" encoding="UTF-8" standalone="no"?>
<svg
   xmlns:dc="http://purl.org/dc/elements/1.1/"
   xmlns:cc="http://creativecommons.org/ns#"
   xmlns:rdf="http://www.w3.org/1999/02/22-rdf-syntax-ns#"
   xmlns:svg="http://www.w3.org/2000/svg"
   xmlns="http://www.w3.org/2000/svg"
   id="svg5261"
   version="1.1"
   viewBox="0 0 210 297"
   height="297mm"
   width="210mm">
  <defs
     id="defs5255" />
  <metadata
     id="metadata5258">
    <rdf:RDF>
      <cc:Work
         rdf:about="">
        <dc:format>image/svg+xml</dc:format>
        <dc:type
           rdf:resource="http://purl.org/dc/dcmitype/StillImage" />
        <dc:title></dc:title>
      </cc:Work>
    </rdf:RDF>
  </metadata>
  <g
     id="layer1">
    <g
       transform="matrix(23.63611,0,0,23.63611,4.8629163,113.65726)"
       id="g38">
      <path
         id="path40"
         style="fill:#000000;fill-rule:nonzero;stroke:none"
         d="m 0.35,-0.056 v 0 c 0,0 -0.052,0.067 -0.119,0.067 0,0 -0.081,0 -0.11,-0.059 0,0 -0.013,-0.026 -0.013,-0.061 0,0 0,-0.054 0.053,-0.196 0,0 0.002,-0.007 0.005,-0.014 0,0 0.017,-0.043 0.017,-0.068 0,0 0,-0.033 -0.025,-0.033 0,0 -0.056,0 -0.091,0.095 0,0 -0.001,0 -0.001,0.001 v 0.001 c 0,0 -0.005,0.013 -0.009,0.027 0,0 -0.011,0.017 -0.016,0.018 0,0 -0.012,0 -0.012,-0.01 0,0 0,-0.018 0.021,-0.063 0,0 0.044,-0.091 0.111,-0.091 0,0 0.053,0 0.074,0.045 0,0 0.008,0.017 0.008,0.037 0,0 0,0.02 -0.017,0.063 0,0 -0.054,0.143 -0.054,0.204 0,0 0,0.082 0.062,0.082 0,0 0.063,0 0.106,-0.069 0,0 0.006,-0.009 0.008,-0.015 0,0 0.022,-0.099 0.075,-0.301 0,0 0.008,-0.035 0.039,-0.035 0,0 0.025,0.005 0.029,0.027 0,0 0,-0.002 -0.015,0.067 0,0 -0.014,0.051 -0.017,0.068 l -0.028,0.108 c 0,0 -0.02,0.087 -0.02,0.104 0,0 0,0.046 0.031,0.046 0,0 0.042,0 0.069,-0.1 0,0 0.003,-0.01 0.006,-0.024 0,0 0.008,-0.017 0.014,-0.018 0,0 0.012,0 0.012,0.01 0,0 0,0.015 -0.018,0.07 0,0 -0.006,0.017 -0.012,0.029 0,0 -0.027,0.055 -0.074,0.055 0,0 -0.057,0 -0.081,-0.048 0,0 -0.005,-0.009 -0.008,-0.019 z" />
    </g>
    <g
       transform="matrix(23.63611,0,0,23.63611,18.393409,113.65726)"
       id="g42">
      <path
         id="path44"
         style="fill:#000000;fill-rule:nonzero;stroke:none"
         d="m 0.331,0.24 v 0 c 0,0 0,0.01 -0.01,0.01 0,0 -0.012,0 -0.053,-0.041 0,0 -0.062,-0.062 -0.103,-0.147 0,0 -0.066,-0.136 -0.066,-0.312 0,0 0,-0.169 0.063,-0.305 0,0 0.052,-0.111 0.132,-0.178 0,0 0.021,-0.017 0.027,-0.017 0,0 0.01,0 0.01,0.01 0,0 0,0.005 -0.013,0.017 0,0 -0.161,0.164 -0.161,0.473 0,0 0,0.308 0.157,0.468 0,0 0.017,0.017 0.017,0.022 z" />
    </g>
    <g
       transform="matrix(23.63611,0,0,23.63611,27.585254,113.65726)"
       id="g46">
      <path
         id="path48"
         style="fill:#000000;fill-rule:nonzero;stroke:none"
         d="m 0.613,-0.602 v 0.524 c 0,0 0,0.03 0.012,0.038 v 0 c 0,0 0.015,0.009 0.067,0.009 H 0.716 V 0 c 0,0 -0.035,-0.003 -0.148,-0.003 0,0 -0.112,0 -0.147,0.003 v -0.031 h 0.024 c 0,0 0.065,0 0.075,-0.017 0,0 0.004,-0.007 0.004,-0.03 V -0.649 H 0.225 v 0.571 c 0,0 0,0.03 0.012,0.038 0,0 0.014,0.009 0.067,0.009 H 0.328 V 0 c 0,0 -0.035,-0.003 -0.148,-0.003 0,0 -0.112,0 -0.147,0.003 v -0.031 h 0.024 c 0,0 0.065,0 0.075,-0.017 0,0 0.004,-0.007 0.004,-0.03 v -0.524 c 0,0 0,-0.03 -0.012,-0.038 0,0 -0.014,-0.009 -0.067,-0.009 H 0.033 V -0.68 h 0.683 v 0.031 H 0.692 c 0,0 -0.065,0 -0.075,0.017 0,0 -0.004,0.007 -0.004,0.03 z" />
    </g>
    <g
       transform="matrix(16.545277,0,0,16.545277,45.312572,117.20267)"
       id="g50">
      <path
         id="path52"
         style="fill:#000000;fill-rule:nonzero;stroke:none"
         d="m 0.287,-0.683 -0.104,0.422 c 0,0 0.043,-0.017 0.111,-0.093 0,0 0.079,-0.088 0.146,-0.088 0,0 0.048,0 0.064,0.04 0,0 0.004,0.011 0.004,0.023 0,0 0,0.041 -0.034,0.057 0,0 -0.011,0.004 -0.021,0.004 0,0 -0.031,0 -0.037,-0.027 0,0 -0.001,-0.004 -0.001,-0.008 0,0 0,-0.028 0.025,-0.044 l 0.001,-0.001 v 0 c 0,0 0.013,-0.008 0.031,-0.009 L 0.468,-0.411 c 0,0 -0.008,-0.006 -0.021,-0.008 0,0 -0.002,-0.001 -0.009,-0.001 0,0 -0.053,0 -0.129,0.081 0,0 -0.004,0.004 -0.008,0.009 l -0.006,0.006 c 0,0 -0.052,0.054 -0.086,0.074 0,0 0.148,0.019 0.148,0.105 0,0 0,0.014 -0.004,0.031 0,0 -0.008,0.032 -0.008,0.056 0,0 0,0.047 0.032,0.047 0,0 0.046,0 0.074,-0.083 0,0 0.007,-0.017 0.013,-0.041 0,0 0.008,-0.017 0.014,-0.018 0,0 0.012,0 0.012,0.01 0,0 0,0.016 -0.019,0.065 0,0 -0.008,0.02 -0.017,0.036 0,0 -0.032,0.053 -0.079,0.053 0,0 -0.055,0 -0.08,-0.048 0,0 -0.012,-0.023 -0.012,-0.051 0,0 0,-0.011 0.004,-0.035 0,0 0.003,-0.01 0.003,-0.021 0,0 0,-0.063 -0.09,-0.081 0,0 -0.013,-0.003 -0.026,-0.004 0,0 -0.05,0.208 -0.056,0.219 0,0 -0.01,0.019 -0.034,0.021 0,0 -0.024,0 -0.028,-0.021 0,0 -0.001,-0.004 -0.001,-0.007 0,0 0,-0.008 0.004,-0.022 l 0.145,-0.576 0.003,-0.02 c 0,0 0,-0.011 -0.014,-0.014 v 0 c 0,0 -0.012,-0.003 -0.036,-0.003 0,0 -0.022,0 -0.024,-0.012 0,0 0,-0.017 0.019,-0.02 l 0.122,-0.01 c 0,0 0.013,0 0.013,0.011 z" />
    </g>
    <g
       transform="matrix(23.63611,0,0,23.63611,54.446983,113.65726)"
       id="g54">
      <path
         id="path56"
         style="fill:#000000;fill-rule:nonzero;stroke:none"
         d="m 0.289,-0.25 v 0 c 0,0 0,0.169 -0.063,0.305 0,0 -0.052,0.111 -0.132,0.178 0,0 -0.021,0.017 -0.027,0.017 0,0 -0.01,0 -0.01,-0.01 0,0 0,-0.005 0.013,-0.017 0,0 0.161,-0.164 0.161,-0.473 0,0 0,-0.305 -0.15,-0.462 L 0.076,-0.717 c 0,0 -0.019,-0.018 -0.019,-0.023 0,0 0,-0.01 0.01,-0.01 0,0 0.012,0 0.053,0.041 0,0 0.062,0.062 0.103,0.147 0,0 0.066,0.136 0.066,0.312 z" />
    </g>
    <g
       id="g58"
       transform="matrix(23.63611,0,0,23.63611,-10.368159,-0.31478611)">
      <g
         id="g60"
         transform="translate(4.32836,4.27653)">
        <path
           d="m 0.437,-0.67 -0.056,0.227 c 0,0 0.127,0.009 0.174,0.102 0,0 0.018,0.037 0.018,0.079 0,0 0,0.096 -0.085,0.178 0,0 -0.089,0.086 -0.207,0.095 0,0 -0.007,0.001 -0.014,0.001 L 0.229,0.161 c 0,0 -0.008,0.037 -0.011,0.04 0,0 -0.004,0.004 -0.01,0.004 0,0 -0.012,0 -0.012,-0.011 0,0 0,-0.002 0.022,-0.088 L 0.24,0.016 c 0,0 0,-0.002 0.001,-0.004 0,0 -0.115,-0.007 -0.166,-0.087 0,0 -0.026,-0.042 -0.026,-0.094 0,0 0,-0.098 0.087,-0.18 0,0 0.089,-0.085 0.207,-0.093 0,0 0.006,-0.001 0.012,-0.001 l 0.058,-0.231 c 0,0 0.009,-0.019 0.015,-0.02 0,0 0.012,0 0.012,0.01 l -0.003,0.013 v 0.001 m -0.191,0.66 0.103,-0.411 c 0,0 -0.116,0.01 -0.185,0.112 0,0 -0.05,0.075 -0.05,0.161 0,0 0,0.098 0.084,0.129 0,0 0.023,0.008 0.048,0.009 M 0.375,-0.421 0.272,-0.01 c 0,0 0.116,-0.009 0.186,-0.113 0,0 0.05,-0.075 0.05,-0.16 0,0 0,-0.094 -0.078,-0.126 0,0 -0.025,-0.01 -0.055,-0.012 z"
           style="fill:#000000;fill-rule:nonzero;stroke:none"
           id="path62" />
      </g>
      <g
         id="g64"
         transform="matrix(0.7,0,0,0.7,4.92419,4.50598)">
        <path
           d="m 0.284,-0.625 c 0,0 0,0.031 -0.031,0.047 0,0 -0.011,0.006 -0.022,0.006 0,0 -0.03,0 -0.037,-0.027 0,0 -0.001,-0.005 -0.001,-0.009 0,0 0,-0.028 0.028,-0.045 0,0 0.013,-0.008 0.026,-0.008 0,0 0.03,0 0.036,0.027 v 0.001 c 0,0 0.001,0.004 0.001,0.008 m -0.076,0.376 -0.039,0.105 c 0,0 -0.028,0.081 -0.029,0.1 0,0 0,0.033 0.024,0.033 0,0 0.063,0 0.098,-0.112 l 0.004,-0.012 c 0,0 0.005,-0.016 0.01,-0.017 v -0.001 h 0.005 c 0,0 0.012,0 0.012,0.01 0,0 0,0.018 -0.022,0.064 0,0 -0.043,0.09 -0.109,0.09 0,0 -0.053,0 -0.074,-0.044 0,0 -0.008,-0.018 -0.008,-0.038 0,0 0,-0.02 0.023,-0.08 0,0 0.07,-0.188 0.069,-0.185 0,0 0.011,-0.028 0.011,-0.052 0,0 0,-0.032 -0.025,-0.032 0,0 -0.055,0 -0.09,0.091 v 0.001 c 0,0 -0.006,0.015 -0.011,0.032 0,0 -0.011,0.017 -0.016,0.018 0,0 -0.012,0 -0.012,-0.01 0,0 0,-0.018 0.022,-0.063 0,0 0.043,-0.091 0.11,-0.091 0,0 0.053,0 0.074,0.045 0,0 0.008,0.017 0.008,0.037 0,0 0,0.02 -0.013,0.053 0,0 -0.017,0.046 -0.022,0.058 z"
           style="fill:#000000;fill-rule:nonzero;stroke:none"
           id="path66" />
      </g>
    </g>
  </g>
</svg>
